<?xml version="1.0" encoding="utf-8"?>
<!-- Generator: Adobe Illustrator 26.2.1, SVG Export Plug-In . SVG Version: 6.00 Build 0)  -->
<svg version="1.1" id="Layer_1" xmlns="http://www.w3.org/2000/svg" xmlns:xlink="http://www.w3.org/1999/xlink" x="0px" y="0px"
	 viewBox="0 0 398.2 27.9" style="enable-background:new 0 0 398.2 27.9;" xml:space="preserve">
<style type="text/css">
	.st0{fill:#D5D1AE;}
</style>
<path class="st0" d="M2.2,17c4.3,1,10.6,0.6,15,0.7c0,0,15,0.1,15,0.1c28,0.1,62.4-0.2,90.2,0.2c0.2,0,0.3,0.1,0.3,0.2
	c0,0.1-0.1,0.2-0.3,0.2c-33.3,0.5-71.9,0-105.3,0.3c-4.4,0.1-10.8-0.3-15,0.7C-0.7,19.9-0.8,16.5,2.2,17L2.2,17z"/>
<path class="st0" d="M396,18.2c-4.3,1-10.6,0.6-15,0.7c0,0-15,0.1-15,0.1c-28,0.1-62.4-0.2-90.2,0.2c-0.2,0-0.3,0.1-0.3,0.2
	c0,0.1,0.1,0.2,0.3,0.2c33.3,0.5,71.9,0,105.3,0.3c4.4,0.1,10.8-0.3,15,0.7C398.9,21.1,399,17.7,396,18.2L396,18.2z"/>
<g>
	<g>
		<path class="st0" d="M11.1,11.9c-0.3-0.7-0.8-1.3-1.6-1.3c-0.9,0-1.3,0.8-1.3,1.9c0,1.4,0.5,2.4,1.7,2.4c1,0,1.4-0.5,1.7-0.9
			l0.1,0.1c-0.4,0.8-1.1,1.8-2.3,1.8c-1.4,0-2.3-1.1-2.3-2.6c0-1.4,1.1-2.9,3-2.9h1.2v1.6H11.1z"/>
		<path class="st0" d="M17.2,11v2.5c0,0.7-0.1,1-0.3,1.4c-0.3,0.5-0.9,0.9-1.7,0.9c-0.5,0-2.3,0-2.3-1.9v-2.9l-0.6-0.8h2.2l-0.6,0.8
			v2.7c0,1.5,0.7,1.6,1.5,1.6c0.6,0,1.4-0.4,1.4-2.1V11l-0.7-0.7h1.8L17.2,11L17.2,11z"/>
		<path class="st0" d="M18.6,13.6c0.3,1,1,1.9,1.9,1.9c0.4,0,0.8-0.2,0.8-0.8c0-1.5-2.8-1.1-2.8-3c0-0.8,0.6-1.5,1.7-1.5h1.1
			l0.4-0.1v1.7l-0.1,0c-0.3-0.8-0.9-1.3-1.6-1.3c-0.4,0-0.8,0.3-0.8,0.7c0,1.3,2.9,1.2,2.9,2.9c0,1.2-0.9,1.7-2,1.7
			c-0.5,0-1.2-0.1-1.6-0.3V13.6L18.6,13.6z"/>
		<path class="st0" d="M22.6,10.3h4.8V12l-0.1,0l-1-1.5h-0.8v4.3l0.6,0.8h-2.2l0.6-0.8v-4.3h-0.8l-1,1.5l-0.1,0V10.3z"/>
		<path class="st0" d="M30.4,15.8c-1.5,0-2.4-1.3-2.4-2.6c0-1.6,1-3.1,3-3.1c1.5,0,2.4,1.3,2.4,2.6C33.3,14.4,32.3,15.8,30.4,15.8z
			 M29.1,12.3c0,1.6,0.7,3.2,1.8,3.2c1,0,1.3-1.1,1.3-1.8c0-1.6-0.7-3.2-1.8-3.2C29.3,10.5,29.1,11.6,29.1,12.3z"/>
		<path class="st0" d="M35.5,15.7h-1.6l0.6-0.8v-3.9l-0.7-0.8h1.6l1.9,4l1.7-4h1.7l-0.6,0.7v4l0.6,0.8h-2.3l0.7-0.8V11L37,15.8h-0.1
			l-2.1-4.2V15L35.5,15.7z"/>
		<path class="st0" d="M47.1,11.9c-0.3-0.7-0.8-1.3-1.6-1.3c-0.9,0-1.3,0.8-1.3,1.9c0,1.4,0.5,2.4,1.7,2.4c1,0,1.4-0.5,1.7-0.9
			l0.1,0.1c-0.4,0.8-1.1,1.8-2.3,1.8c-1.4,0-2.3-1.1-2.3-2.6c0-1.4,1.1-2.9,3-2.9h1.2v1.6H47.1z"/>
		<path class="st0" d="M51.8,15.7c-0.5-0.9-1.1-1.9-1.5-2.5l-0.4,0v1.6l0.6,0.8h-2.2l0.6-0.8v-3.8l-0.6-0.8h2c0.7,0,2.3,0.1,2.3,1.4
			c0,0.7-0.6,1.1-1.2,1.4l1.2,1.9l0.8,0.8H51.8z M49.8,13c0.8,0,1.5-0.4,1.5-1.2c0-1-0.7-1.3-1.5-1.3V13z"/>
		<path class="st0" d="M57.3,15.2L56.8,14h-2.1l-0.4,1.1l0.8,0.6h-1.8l0.6-0.6l2-4.9h0.4l2.2,5l0.6,0.5h-2.5L57.3,15.2z M54.8,13.7
			h1.8l-0.9-2.2L54.8,13.7z"/>
		<path class="st0" d="M59.8,14.9v-3.8l-0.5-0.8h3.9v1.6h-0.1l-0.9-1.3h-1.4v2.2H63v0.4h-2.1v1.7l0.9,0.8h-2.4v0L59.8,14.9z"/>
		<path class="st0" d="M63.7,10.3h4.8V12l-0.1,0l-1-1.5h-0.8v4.3l0.6,0.8H65l0.6-0.8v-4.3h-0.8l-1,1.5l-0.1,0V10.3z"/>
	</g>
	<g>
		<path class="st0" d="M338.7,14.9v-3.8l-0.5-0.8h3.9v1.6h-0.1l-0.9-1.3h-1.4v2.2h2.1v0.4h-2.1v1.7l0.9,0.8h-2.4v0L338.7,14.9z"/>
		<path class="st0" d="M346.2,15.7c-0.5-0.9-1.1-1.9-1.5-2.5l-0.4,0v1.6l0.6,0.8h-2.2l0.6-0.8v-3.8l-0.6-0.8h2
			c0.7,0,2.3,0.1,2.3,1.4c0,0.7-0.6,1.1-1.2,1.4l1.2,1.9l0.8,0.8H346.2z M344.3,13c0.8,0,1.5-0.4,1.5-1.2c0-1-0.7-1.3-1.5-1.3V13z"
			/>
		<path class="st0" d="M352.2,15.7h-4l0.5-0.8v-3.8l-0.5-0.8h3.9v1.7H352l-0.9-1.4h-1.4v2.2h2.2v0.4h-2.2v2.3h1.4l1.1-1.5l0.1,0
			L352.2,15.7z"/>
		<path class="st0" d="M357,15.7h-4l0.5-0.8v-3.8l-0.5-0.8h3.9v1.7h-0.1l-0.9-1.4h-1.4v2.2h2.2v0.4h-2.2v2.3h1.4L357,14l0.1,0
			L357,15.7z"/>
		<path class="st0" d="M363.8,16.7c-0.6-0.2-1.1-0.6-1.7-1c-0.1,0-0.2,0-0.3,0c-1.5,0-2.4-1.3-2.4-2.6c0-1.6,1-3,3-3
			c1.5,0,2.4,1.3,2.4,2.6c0,1-0.4,2-1.2,2.6L363.8,16.7L363.8,16.7z M360.5,12.3c0,1.6,0.7,3.2,1.8,3.2c1,0,1.3-1.1,1.3-1.7
			c0-1.6-0.7-3.2-1.8-3.2C360.7,10.5,360.5,11.6,360.5,12.3z"/>
		<path class="st0" d="M370.2,11v2.5c0,0.7-0.1,1-0.3,1.4c-0.3,0.5-0.9,0.9-1.7,0.9c-0.5,0-2.3,0-2.3-1.9v-2.9l-0.6-0.8h2.2
			l-0.6,0.8v2.7c0,1.5,0.7,1.6,1.5,1.6c0.6,0,1.4-0.4,1.4-2.1V11l-0.7-0.7h1.8L370.2,11L370.2,11z"/>
		<path class="st0" d="M373.9,15.8c-1.5,0-2.4-1.3-2.4-2.6c0-1.6,1-3.1,3-3.1c1.5,0,2.4,1.3,2.4,2.6
			C376.9,14.4,375.9,15.8,373.9,15.8z M372.7,12.3c0,1.6,0.7,3.2,1.8,3.2c1,0,1.3-1.1,1.3-1.8c0-1.6-0.7-3.2-1.8-3.2
			C372.9,10.5,372.7,11.6,372.7,12.3z"/>
		<path class="st0" d="M377.3,10.3h4.8V12l-0.1,0l-1-1.5h-0.8v4.3l0.6,0.8h-2.2l0.6-0.8v-4.3h-0.8l-1,1.5l-0.1,0V10.3z"/>
		<path class="st0" d="M386.8,15.7h-4l0.5-0.8v-3.8l-0.5-0.8h3.9v1.7h-0.1l-0.9-1.4h-1.4v2.2h2.2v0.4h-2.2v2.3h1.4l1.1-1.5l0.1,0
			L386.8,15.7z"/>
		<path class="st0" d="M387.6,13.6c0.3,1,1,1.9,1.9,1.9c0.4,0,0.8-0.2,0.8-0.8c0-1.5-2.8-1.1-2.8-3c0-0.8,0.6-1.5,1.7-1.5h1.1
			l0.4-0.1v1.7l-0.1,0c-0.3-0.8-0.9-1.3-1.6-1.3c-0.4,0-0.8,0.3-0.8,0.7c0,1.3,2.9,1.2,2.9,2.9c0,1.2-0.9,1.7-2,1.7
			c-0.5,0-1.2-0.1-1.6-0.3V13.6L387.6,13.6z"/>
	</g>
</g>
<g>
	<path class="st0" d="M152.9,17.4c0,0.8,0.3,1.4,1,1.5h0.1c0.1,0,0.2,0.1,0.2,0.2v0.5c0,0.2-0.1,0.2-0.2,0.2h-4.7
		c-0.1,0-0.2-0.1-0.2-0.2v-0.5c0-0.2,0.1-0.2,0.2-0.2h0.1c0.8,0,1-0.7,1-1.5v-6.8c0-0.8-0.3-1.5-1.1-1.5h0c-0.2,0-0.2-0.1-0.2-0.2
		V8.5c0-0.1,0.1-0.2,0.2-0.2h5.7c2.5,0,4.1,1.6,4.1,3.4c0,2-1.3,3.5-5,3.5h-1.1V17.4z M153.8,14c2.1,0,3-0.7,3-2.4
		c0-1.4-0.9-2.5-2.5-2.5h-1.5V14H153.8z"/>
	<path class="st0" d="M167,16.9c0,0.7,0.1,1.4,0.9,1.5c0.2,0,0.2,0.1,0.2,0.2v0.5c0,0.1-0.1,0.2-0.2,0.2c-1.5,0-2.1,0.3-2.8,0.6
		c0,0-0.1,0-0.1,0h0c0,0,0,0,0,0l0.2-1.4c-0.2,0.4-0.8,1.4-2.3,1.4c-1.4,0-3.4-1.1-3.4-4.1c0-2.8,1.7-4,3.6-4c1,0,1.9,0.3,2.5,0.9
		c0.9-0.4,1.2-0.6,1.5-0.9c0,0,0,0,0.1,0l0,0c0,0,0,0,0,0V16.9z M164.8,14.5c-0.1-0.6-0.5-1.6-1.7-1.6c-1.5,0-1.9,1.2-1.9,2.5
		c0,2,0.9,3.2,2.1,3.2c1.1,0,1.5-1,1.5-1V14.5z"/>
	<path class="st0" d="M175.2,17.7c0.1,0.1,0.1,0.2,0.1,0.3c-0.5,1-1.3,1.7-2.8,1.9c-0.1,0-0.3,0-0.4,0c-2.3,0-3.8-2.2-3.7-4.4
		c0.2-2.6,2.1-3.7,3.9-3.7l0.3,0c1.9,0.1,2.6,1.1,2.8,2.1l0,0.1c0,0.1-0.1,0.2-0.2,0.2l-1.8,0.5c-0.1,0-0.1,0-0.1,0
		c-0.1,0-0.1,0-0.1-0.1l0-0.2c0.1-0.9-0.4-1.4-1.3-1.4c-1,0-1.4,0.9-1.5,1.9c0,0.2,0,0.4,0,0.6c0,1.5,0.5,3,2.1,3c0.1,0,0.2,0,0.3,0
		c0.6-0.1,1.3-0.4,1.7-1.1c0.1-0.1,0.1-0.1,0.2-0.1c0,0,0.1,0,0.1,0.1L175.2,17.7z"/>
	<path class="st0" d="M180.7,18.8c0.1,0,0.2,0.1,0.2,0.2v0.5c0,0.2-0.1,0.2-0.3,0.2h-4.3c-0.2,0-0.3-0.1-0.3-0.2v-0.5
		c0-0.1,0.1-0.2,0.2-0.2h0c0.8,0,1.1-0.6,1.1-1.5v-1.6c0-0.7-0.1-1.5-0.9-1.6c-0.2,0-0.2-0.1-0.2-0.2v-0.5c0-0.1,0.1-0.2,0.2-0.2
		c1.6-0.5,2.4-1.1,2.8-1.6c0,0,0,0,0.1,0h0c0,0,0,0,0,0v5.8C179.5,18.2,179.9,18.8,180.7,18.8L180.7,18.8z M177.7,10.3
		c-0.3-0.3-0.4-0.5-0.4-0.8c0-0.3,0.1-0.5,0.4-0.8c0.3-0.3,0.5-0.4,0.8-0.4c0.3,0,0.5,0.1,0.8,0.4c0.3,0.3,0.4,0.5,0.4,0.8
		c0,0.3-0.1,0.5-0.4,0.8c-0.3,0.3-0.5,0.4-0.8,0.4C178.2,10.7,177.9,10.6,177.7,10.3z"/>
	<path class="st0" d="M191.8,18.8c0.1,0,0.2,0.1,0.2,0.2v0.5c0,0.2-0.1,0.2-0.3,0.2h-4.4c-0.1,0-0.3-0.1-0.3-0.2v-0.5l0,0
		c0-0.1,0.1-0.2,0.2-0.2h0c0.8,0,1.1-0.6,1.1-1.5v-2.7c0-0.7-0.1-1.5-1.2-1.5h-2.2v4.2c0,0.8,0.4,1.5,1.1,1.5c0.1,0,0.2,0.1,0.2,0.2
		v0.5c0,0.2-0.1,0.2-0.2,0.2h-4.4c-0.1,0-0.2-0.1-0.2-0.2v-0.5c0-0.1,0.1-0.2,0.2-0.2c0.8,0,1.1-0.6,1.1-1.5v-2.6
		c0-0.8,0-1.7-1.1-1.7c-0.1,0-0.2-0.1-0.2-0.2v-0.5c0-0.1,0.1-0.2,0.2-0.2h1.1l0-0.1c0-1.8,1.2-4.5,4.3-4.5c2.2,0,3.3,0.9,3.3,2.2
		c0,0.2,0,0.4-0.1,0.6c-0.1,0.2-0.2,0.2-0.4,0.3l-1.6,0.4l0,0c-0.1,0-0.1-0.1-0.1-0.1c0-0.1,0-0.1,0-0.2c0.2-0.3,0.2-0.6,0.2-0.9
		c0-1-0.6-1.5-1.5-1.5c-1.4,0-2,1.2-2,2.8v1h2.2c1.3,0,2.6-0.3,3.1-0.4c0,0,0.1,0,0.1,0h0c0,0,0,0,0,0v5.8
		C190.6,18.2,191,18.8,191.8,18.8L191.8,18.8z"/>
	<path class="st0" d="M199.1,17.7c0.1,0.1,0.1,0.2,0.1,0.3c-0.5,1-1.3,1.7-2.8,1.9c-0.1,0-0.3,0-0.4,0c-2.3,0-3.8-2.2-3.7-4.4
		c0.2-2.6,2.1-3.7,3.9-3.7l0.3,0c1.9,0.1,2.6,1.1,2.8,2.1l0,0.1c0,0.1-0.1,0.2-0.2,0.2l-1.8,0.5c-0.1,0-0.1,0-0.1,0
		c-0.1,0-0.1,0-0.1-0.1l0-0.2c0.1-0.9-0.4-1.4-1.3-1.4c-1,0-1.4,0.9-1.5,1.9c0,0.2,0,0.4,0,0.6c0,1.5,0.5,3,2.1,3c0.1,0,0.2,0,0.3,0
		c0.6-0.1,1.3-0.4,1.7-1.1c0.1-0.1,0.1-0.1,0.2-0.1c0,0,0.1,0,0.1,0.1L199.1,17.7z"/>
	<path class="st0" d="M214.9,14.1c0.2,0,0.2,0.1,0.2,0.2v0.5c0,0.1-0.1,0.2-0.2,0.2h-0.1c-0.3,0-0.4,0.2-0.4,0.5v1.7
		c-0.1,0.2-0.3,0.7-0.5,0.9c-0.9,1.2-2.3,1.9-4.2,1.9c-3.4,0-5.6-2.5-5.6-5.8c0-2.6,1.2-6.1,5.7-6.1c2,0,4.2,0.9,4.7,3.2l0,0.1
		c0,0.2-0.1,0.3-0.3,0.3l-2,0.7c-0.1,0-0.1,0-0.2,0c-0.1,0-0.2-0.1-0.2-0.2l0-0.2l0-0.3c0-1.1-0.5-2.5-2.3-2.5
		c-2.2,0-2.9,2.5-2.9,4.2c0,2.4,1,5,3.3,5c0.8,0,1.7-0.2,1.7-0.9v-0.8c0-1.7-0.8-1.7-1.6-1.8h-0.1c-0.1,0-0.2-0.1-0.2-0.2v-0.5
		c0-0.1,0.1-0.2,0.2-0.2L214.9,14.1z"/>
	<path class="st0" d="M219,13.7c0.6-1.2,1.6-1.8,2.7-1.8c1,0,1.7,0.5,1.7,1.6c0,0.5,0,0.8-0.4,1l-1.4,0.6c-0.1,0-0.1,0-0.1,0
		c-0.1,0-0.1-0.1-0.1-0.1c0,0,0-0.1,0-0.1c0.1-0.3,0.1-0.6,0.1-0.8c0-0.6-0.3-0.8-0.7-0.8c-0.7,0-1.3,0.8-1.5,1.3v2.8
		c0,0.8,0.4,1.5,1.1,1.5h0c0.2,0,0.2,0.1,0.2,0.2v0.5c0,0.2-0.1,0.2-0.2,0.2h-4.5c-0.1,0-0.2-0.1-0.2-0.2v-0.5
		c0-0.1,0.1-0.2,0.2-0.2h0c0.8,0,1.1-0.6,1.1-1.5v-1.9c0-0.8-0.1-1.7-0.9-1.8c-0.2,0-0.2-0.1-0.2-0.2V13c0-0.1,0.1-0.2,0.2-0.2
		c1.5-0.2,2.6-0.8,3-1.1c0,0,0,0,0.1,0l0,0c0,0,0,0,0,0L219,13.7z"/>
	<path class="st0" d="M226.1,17c0.4,0.9,1.1,1.7,2.3,1.7c0.7,0,1.4-0.4,2-1.1c0,0,0.1-0.1,0.1-0.1c0.1,0,0.1,0,0.6,0.3
		c0,0,0.1,0.1,0.1,0.1c0,0.1-0.1,0.2-0.1,0.3c-0.6,1.1-1.5,1.8-3.1,1.8c-2.6,0-4.1-1.9-4.1-4.1c0-2.9,1.8-3.9,3.7-3.9
		c2,0,3.2,1.8,3.2,3c0,0.1,0,0.1-0.1,0.2L226.1,17z M228.4,14.8c0-1-0.5-1.7-1.2-1.7c-0.8,0-1.4,0.8-1.4,1.8c0,0.3,0,0.8,0.1,1.2
		L228.4,14.8z"/>
	<path class="st0" d="M233.9,17c0.4,0.9,1.1,1.7,2.3,1.7c0.7,0,1.4-0.4,2-1.1c0,0,0.1-0.1,0.1-0.1c0.1,0,0.1,0,0.6,0.3
		c0,0,0.1,0.1,0.1,0.1c0,0.1-0.1,0.2-0.1,0.3c-0.6,1.1-1.5,1.8-3.1,1.8c-2.6,0-4.1-1.9-4.1-4.1c0-2.9,1.8-3.9,3.7-3.9
		c2,0,3.2,1.8,3.2,3c0,0.1,0,0.1-0.1,0.2L233.9,17z M236.2,14.8c0-1-0.5-1.7-1.2-1.7c-0.8,0-1.4,0.8-1.4,1.8c0,0.3,0,0.8,0.1,1.2
		L236.2,14.8z"/>
	<path class="st0" d="M249.2,18.8c0.1,0,0.2,0.1,0.2,0.2v0.5c0,0.2-0.1,0.2-0.2,0.2H245c-0.2,0-0.2-0.1-0.2-0.2v-0.5
		c0-0.1,0.1-0.2,0.2-0.2c0.6,0,0.8-0.6,0.8-1.5v-2.3c0-0.8,0.1-1.8-1.1-1.8c-0.8,0-1.6,0.7-1.9,1.3v2.8c0,0.8,0.4,1.5,1.1,1.5h0
		c0.1,0,0.2,0.1,0.2,0.2v0.5c0,0.2-0.1,0.2-0.2,0.2h-4.5c-0.1,0-0.2-0.1-0.2-0.2v-0.5c0-0.1,0.1-0.2,0.2-0.2h0
		c0.8,0,1.1-0.6,1.1-1.5v-1.9c0-0.8-0.1-1.7-0.9-1.8c-0.2,0-0.2-0.1-0.2-0.2V13c0-0.1,0.1-0.2,0.2-0.2c1.5-0.2,2.6-0.8,3-1.1
		c0,0,0,0,0.1,0l0,0c0,0,0,0,0,0l-0.3,2c0.4-0.7,1.3-1.8,2.7-1.8c2.2,0,2.6,1.5,2.6,3v2.5C248,18.2,248.4,18.8,249.2,18.8
		L249.2,18.8z"/>
</g>
<path class="st0" d="M247,27.8l-69.2,0.1c0,0-17.3,0-17.3,0s-8.7,0-8.7,0c-5.9,0.4-11.8-3.5-13.8-9.1c-3.4-8.9,3.6-18.7,13-18.7
	c0,0,69.2-0.1,69.2-0.1c5.6,0,20.5,0.1,26,0.1c5.9-0.3,11.8,3.6,13.7,9.2C263.3,18.1,256.4,27.9,247,27.8L247,27.8z M247,27.4
	c5.7,0,11.1-4,12.7-9.5c2.6-8.7-4.4-17.6-13.5-17c0,0-8.7,0-8.7,0c-11.1,0.1-74.1,0-86.5,0c-5.7-0.1-11,3.9-12.6,9.3
	c-1.7,5.4,0.5,11.7,5.3,14.8c2.4,1.6,5.2,2.3,8,2.2l8.7,0C171.6,27.3,234.6,27.4,247,27.4L247,27.4z"/>
</svg>
