<?xml version="1.0" encoding="utf-8"?>
<!-- Generator: Adobe Illustrator 26.2.1, SVG Export Plug-In . SVG Version: 6.00 Build 0)  -->
<svg version="1.1" id="Layer_1" xmlns="http://www.w3.org/2000/svg" xmlns:xlink="http://www.w3.org/1999/xlink" x="0px" y="0px"
	 viewBox="0 0 398.2 46.6" style="enable-background:new 0 0 398.2 46.6;" xml:space="preserve">
<style type="text/css">
	.st0{fill:#D5D1AE;}
</style>
<path class="st0" d="M396.7,26.8c-2.8,1.7-7.1,1-10,1.2c0,0-10,0.1-10,0.1c-18.6,0.1-41.6-0.4-60.1,0.3c-0.1,0-0.2,0.2-0.2,0.4
	c0,0.2,0.1,0.3,0.2,0.4c22.2,0.9,47.9,0,70.1,0.4c2.9,0.2,7.2-0.6,10,1.2C398.6,31.6,398.7,26,396.7,26.8L396.7,26.8z"/>
<path class="st0" d="M1.5,30.8c2.8-1.7,7.1-1,10-1.2c0,0,10-0.1,10-0.1c18.6-0.1,41.6,0.4,60.1-0.3c0.1,0,0.2-0.2,0.2-0.4
	c0-0.2-0.1-0.3-0.2-0.4c-22.2-0.9-47.9,0-70.1-0.4c-2.9-0.2-7.2,0.6-10-1.2C-0.5,25.9-0.5,31.6,1.5,30.8L1.5,30.8z"/>
<g>
	<path class="st0" d="M121.9,29c0,1.4,0.4,2.4,1.7,2.4h0.2c0.3,0,0.4,0.1,0.4,0.4v0.8c0,0.3-0.1,0.4-0.4,0.4h-7.9
		c-0.3,0-0.4-0.1-0.4-0.4v-0.8c0-0.3,0.1-0.4,0.4-0.4h0.2c1.3-0.1,1.7-1.1,1.7-2.4V17.7c0-1.4-0.5-2.4-1.9-2.4h0
		c-0.3,0-0.4-0.1-0.4-0.4v-0.8c0-0.3,0.1-0.4,0.4-0.4h9.4c4.2,0,6.9,2.7,6.9,5.7c0,3.3-2.1,5.8-8.4,5.8h-1.9V29z M123.4,23.4
		c3.4,0,5-1.2,5-4c0-2.4-1.6-4.1-4.1-4.1h-2.5v8.2H123.4z"/>
	<path class="st0" d="M145.4,28.2c0,1.2,0.2,2.4,1.5,2.5c0.3,0,0.3,0.2,0.3,0.3V32c0,0.2-0.1,0.3-0.4,0.3c-2.5,0-3.6,0.5-4.7,1
		c0,0-0.1,0.1-0.2,0.1h-0.1c0,0,0,0,0-0.1l0.3-2.3c-0.3,0.7-1.3,2.4-3.9,2.4c-2.3,0-5.7-1.8-5.7-6.8c0-4.8,2.9-6.7,6-6.7
		c1.7,0,3.1,0.5,4.2,1.5c1.4-0.6,2-1.1,2.5-1.4c0,0,0.1-0.1,0.1-0.1l0.1,0c0,0,0,0,0,0V28.2z M141.8,24.2c-0.2-1-0.8-2.7-2.9-2.7
		c-2.5,0-3.2,2.1-3.2,4.2c0,3.3,1.4,5.3,3.6,5.3c1.9,0,2.5-1.7,2.5-1.7V24.2z"/>
	<path class="st0" d="M159.2,29.5c0.2,0.1,0.2,0.3,0.1,0.5c-0.8,1.7-2.2,2.9-4.7,3.1c-0.2,0-0.5,0-0.7,0c-3.9,0-6.4-3.6-6.1-7.3
		c0.4-4.3,3.6-6.1,6.5-6.1l0.5,0c3.1,0.2,4.3,1.9,4.7,3.5l0,0.1c0,0.2-0.1,0.3-0.3,0.3l-2.9,0.8c-0.1,0-0.2,0-0.2,0
		c-0.1,0-0.2-0.1-0.2-0.2l0-0.3c0.1-1.5-0.6-2.3-2.1-2.3c-1.6,0-2.4,1.5-2.6,3.2c0,0.3,0,0.6,0,1c0,2.5,0.9,4.9,3.5,4.9
		c0.2,0,0.3,0,0.5,0c1-0.1,2.1-0.7,2.9-1.8c0.1-0.1,0.2-0.2,0.3-0.2c0.1,0,0.2,0,0.2,0.1L159.2,29.5z"/>
	<path class="st0" d="M168.3,31.5c0.3,0,0.4,0.1,0.4,0.4v0.8c0,0.3-0.2,0.4-0.4,0.4H161c-0.3,0-0.4-0.1-0.4-0.4v-0.8
		c0-0.2,0.1-0.4,0.4-0.4h0c1.3,0,1.9-1,1.9-2.4v-2.7c0-1.1-0.1-2.6-1.5-2.7c-0.3,0-0.3-0.2-0.3-0.3v-0.9c0-0.2,0.1-0.3,0.4-0.3
		c2.7-0.9,4-1.9,4.7-2.6c0,0,0.1-0.1,0.1-0.1h0.1c0,0,0,0,0.1,0V29C166.4,30.4,167,31.5,168.3,31.5L168.3,31.5z M163.3,17.2
		c-0.5-0.5-0.6-0.8-0.6-1.3c0-0.5,0.2-0.8,0.6-1.3c0.5-0.5,0.8-0.6,1.3-0.6c0.5,0,0.8,0.2,1.3,0.6c0.5,0.5,0.6,0.8,0.6,1.3
		c0,0.5-0.2,0.8-0.6,1.3c-0.5,0.5-0.8,0.6-1.3,0.6C164.1,17.8,163.8,17.7,163.3,17.2z"/>
	<path class="st0" d="M186.9,31.5c0.3,0,0.4,0.1,0.4,0.4v0.8c0,0.3-0.2,0.4-0.4,0.4h-7.3c-0.2,0-0.4-0.1-0.4-0.4v-0.8l0,0
		c0-0.2,0.1-0.3,0.4-0.3h0c1.3,0,1.9-1,1.9-2.4v-4.5c0-1.1-0.2-2.5-1.9-2.5h-3.7v7c0,1.4,0.6,2.4,1.9,2.4c0.3,0,0.4,0.1,0.4,0.4v0.8
		c0,0.3-0.1,0.4-0.4,0.4h-7.4c-0.3,0-0.4-0.1-0.4-0.4v-0.8c0-0.2,0.1-0.4,0.4-0.4c1.3,0,1.9-1,1.9-2.4v-4.4c0-1.4,0-2.9-1.9-2.9
		c-0.3,0-0.4-0.1-0.4-0.4v-0.8c0-0.3,0.1-0.4,0.4-0.4h1.9l0-0.2c0-3,1.9-7.5,7.2-7.5c3.6,0,5.5,1.5,5.5,3.7c0,0.3-0.1,0.7-0.2,1.1
		c-0.1,0.3-0.3,0.4-0.6,0.5l-2.7,0.6l-0.1,0c-0.1,0-0.2-0.1-0.2-0.2c0-0.1,0-0.2,0.1-0.3c0.3-0.6,0.4-1.1,0.4-1.5
		c0-1.6-1-2.5-2.6-2.5c-2.4,0-3.3,2.1-3.3,4.6v1.7h3.7c2.2,0,4.4-0.5,5.1-0.7c0,0,0.2-0.1,0.2-0.1h0.1c0,0,0,0,0.1,0V29
		C184.9,30.4,185.5,31.5,186.9,31.5L186.9,31.5z"/>
	<path class="st0" d="M199.1,29.5c0.2,0.1,0.2,0.3,0.1,0.5c-0.8,1.7-2.2,2.9-4.7,3.1c-0.2,0-0.5,0-0.7,0c-3.9,0-6.4-3.6-6.1-7.3
		c0.4-4.3,3.6-6.1,6.5-6.1l0.5,0c3.1,0.2,4.3,1.9,4.7,3.5l0,0.1c0,0.2-0.1,0.3-0.3,0.3l-2.9,0.8c-0.1,0-0.2,0-0.2,0
		c-0.1,0-0.2-0.1-0.2-0.2l0-0.3c0.1-1.5-0.6-2.3-2.1-2.3c-1.6,0-2.4,1.5-2.6,3.2c0,0.3,0,0.6,0,1c0,2.5,0.9,4.9,3.5,4.9
		c0.2,0,0.3,0,0.5,0c1-0.1,2.1-0.7,2.9-1.8c0.1-0.1,0.2-0.2,0.3-0.2c0.1,0,0.2,0,0.2,0.1L199.1,29.5z"/>
	<path class="st0" d="M225.5,23.4c0.3,0,0.4,0.1,0.4,0.4v0.8c0,0.3-0.1,0.4-0.4,0.4h-0.2c-0.5,0-0.7,0.3-0.7,0.8v2.8
		c-0.2,0.4-0.6,1.1-0.9,1.5c-1.6,2-3.8,3.1-7,3.1c-5.6,0-9.3-4.2-9.3-9.7c0-4.3,2.1-10.1,9.5-10.1c3.4,0,7,1.6,7.9,5.4l0,0.2
		c0,0.3-0.2,0.4-0.4,0.5l-3.3,1.1c-0.1,0-0.2,0.1-0.3,0.1c-0.2,0-0.3-0.1-0.3-0.3l0-0.4l0-0.5c0-1.8-0.8-4.1-3.8-4.1
		c-3.7,0-4.9,4.1-4.9,7c0,4,1.8,8.4,5.6,8.4c1.3,0,2.9-0.4,2.9-1.6v-1.3c0-2.9-1.4-2.9-2.7-3h-0.2c-0.2,0-0.4-0.1-0.4-0.4v-0.8
		c0-0.3,0.1-0.4,0.4-0.4L225.5,23.4z"/>
	<path class="st0" d="M232.4,22.8c0.9-2,2.7-3,4.5-3c1.6,0,2.9,0.9,2.9,2.6c0,0.8-0.1,1.4-0.7,1.6l-2.4,1c-0.1,0-0.2,0.1-0.2,0.1
		c-0.2,0-0.2-0.1-0.2-0.2c0-0.1,0-0.1,0-0.2c0.2-0.5,0.2-0.9,0.2-1.3c0-0.9-0.5-1.3-1.2-1.3c-1.2,0-2.2,1.3-2.6,2.2V29
		c0,1.4,0.6,2.4,1.9,2.4h0c0.3,0,0.4,0.1,0.4,0.4v0.8c0,0.3-0.1,0.4-0.4,0.4h-7.5c-0.2,0-0.4-0.1-0.4-0.4v-0.8
		c0-0.2,0.1-0.4,0.4-0.4h0.1c1.3,0,1.9-1,1.9-2.4v-3.2c0-1.4-0.1-2.8-1.5-3c-0.3,0-0.3-0.2-0.3-0.3v-0.9c0-0.2,0.1-0.3,0.4-0.3
		c2.4-0.4,4.4-1.4,5.1-1.9c0,0,0.1-0.1,0.1-0.1l0.1,0c0,0,0,0,0,0L232.4,22.8z"/>
	<path class="st0" d="M244.2,28.4c0.6,1.4,1.9,2.8,3.9,2.8c1.1,0,2.4-0.6,3.3-1.9c0.1-0.1,0.2-0.1,0.2-0.1c0.2,0,0.2,0,1,0.5
		c0.1,0,0.1,0.1,0.1,0.2c0,0.1-0.1,0.3-0.2,0.5c-1,1.8-2.5,3-5.1,3c-4.3,0-6.9-3.1-6.9-6.8c0-4.8,3.1-6.6,6.1-6.6c3.4,0,5.3,3,5.3,5
		c0,0.1,0,0.3-0.2,0.3L244.2,28.4z M248,24.7c0-1.6-0.9-2.8-2.1-2.8c-1.4,0-2.3,1.3-2.3,2.9c0,0.5,0,1.4,0.2,2L248,24.7z"/>
	<path class="st0" d="M257.2,28.4c0.6,1.4,1.9,2.8,3.9,2.8c1.1,0,2.4-0.6,3.3-1.9c0.1-0.1,0.2-0.1,0.2-0.1c0.2,0,0.2,0,1,0.5
		c0.1,0,0.1,0.1,0.1,0.2c0,0.1-0.1,0.3-0.2,0.5c-1,1.8-2.5,3-5.1,3c-4.3,0-6.9-3.1-6.9-6.8c0-4.8,3.1-6.6,6.1-6.6c3.4,0,5.3,3,5.3,5
		c0,0.1,0,0.3-0.2,0.3L257.2,28.4z M261.1,24.7c0-1.6-0.9-2.8-2.1-2.8c-1.4,0-2.3,1.3-2.3,2.9c0,0.5,0,1.4,0.2,2L261.1,24.7z"/>
	<path class="st0" d="M282.7,31.5c0.2,0,0.4,0.1,0.4,0.4v0.8c0,0.3-0.1,0.4-0.4,0.4h-7c-0.3,0-0.4-0.1-0.4-0.4v-0.8
		c0-0.2,0.1-0.4,0.4-0.4c1,0,1.4-1,1.4-2.4v-3.9c0-1.4,0.1-3.1-1.9-3.1c-1.3,0-2.7,1.1-3.1,2.2V29c0,1.4,0.6,2.4,1.9,2.4h0.1
		c0.2,0,0.4,0.1,0.4,0.4v0.8c0,0.3-0.1,0.4-0.4,0.4h-7.5c-0.2,0-0.4-0.1-0.4-0.4v-0.8c0-0.2,0.1-0.4,0.4-0.4h0.1
		c1.3,0,1.9-1,1.9-2.4v-3.2c0-1.4-0.1-2.8-1.5-3c-0.3,0-0.3-0.2-0.3-0.3v-0.9c0-0.2,0.1-0.3,0.4-0.3c2.4-0.4,4.4-1.4,5.1-1.9
		c0,0,0.1-0.1,0.1-0.1l0.1,0c0,0,0,0,0,0l-0.5,3.4c0.7-1.1,2.1-2.9,4.4-2.9c3.7,0,4.4,2.5,4.4,5V29c0,1.4,0.6,2.4,1.9,2.4H282.7z"/>
</g>
<path class="st0" d="M279.2,46.3c-28.8,0-86.8,0-115.6,0.1c0,0-28.9,0.1-28.9,0.1l-14.5,0c-4.9,0.2-9.9-1.1-14-3.8
	c-8.4-5.4-12.4-16.4-9.5-26c2.1-7.1,7.8-13.1,14.9-15.4c2.4-0.8,4.8-1.2,7.3-1.2L176.8,0c26.7,0,74.9-0.1,101.2,0.2
	c15.9-0.7,28,14.6,23.3,29.9C298.4,39.6,289.1,46.5,279.2,46.3L279.2,46.3z M279.2,45.7c9.6,0,18.6-6.7,21.2-15.9
	c4.3-14.6-7.3-29.2-22.5-28.4c-47.4,0.3-111.3,0.2-159,0c-9.5-0.1-18.4,6.5-21.1,15.6c-2.8,9.1,0.9,19.5,8.9,24.7
	c3.9,2.6,8.6,3.9,13.4,3.7c0,0,14.5,0,14.5,0C176.2,45.7,237.5,45.8,279.2,45.7L279.2,45.7z"/>
</svg>
